<mxfile host="65bd71144e">
    <diagram id="m-ujPtjce2BMff1K5dfZ" name="Page-1">
        <mxGraphModel dx="954" dy="1068" grid="1" gridSize="10" guides="1" tooltips="1" connect="1" arrows="1" fold="1" page="1" pageScale="1" pageWidth="850" pageHeight="1100" math="0" shadow="0">
            <root>
                <mxCell id="0"/>
                <mxCell id="1" parent="0"/>
                <mxCell id="3" value="" style="whiteSpace=wrap;html=1;aspect=fixed;" vertex="1" parent="1">
                    <mxGeometry x="170" y="60" width="460" height="460" as="geometry"/>
                </mxCell>
                <mxCell id="4" value="" style="html=1;verticalLabelPosition=bottom;labelBackgroundColor=#ffffff;verticalAlign=top;shadow=0;dashed=0;strokeWidth=1;shape=mxgraph.ios7ui.iconGrid;fillColor=#c0c0c0;gridSize=3,3;" vertex="1" parent="1">
                    <mxGeometry x="180" y="360" width="140" height="130" as="geometry"/>
                </mxCell>
                <mxCell id="5" value="" style="html=1;verticalLabelPosition=bottom;labelBackgroundColor=#ffffff;verticalAlign=top;shadow=0;dashed=0;strokeWidth=1;shape=mxgraph.ios7ui.iconGrid;fillColor=#c0c0c0;gridSize=3,3;" vertex="1" parent="1">
                    <mxGeometry x="180" y="220" width="140" height="130" as="geometry"/>
                </mxCell>
                <mxCell id="6" value="" style="html=1;verticalLabelPosition=bottom;labelBackgroundColor=#ffffff;verticalAlign=top;shadow=0;dashed=0;strokeWidth=1;shape=mxgraph.ios7ui.iconGrid;fillColor=#c0c0c0;gridSize=3,3;" vertex="1" parent="1">
                    <mxGeometry x="180" y="80" width="140" height="130" as="geometry"/>
                </mxCell>
                <mxCell id="7" value="" style="html=1;verticalLabelPosition=bottom;labelBackgroundColor=#ffffff;verticalAlign=top;shadow=0;dashed=0;strokeWidth=1;shape=mxgraph.ios7ui.iconGrid;fillColor=#c0c0c0;gridSize=3,3;" vertex="1" parent="1">
                    <mxGeometry x="330" y="80" width="140" height="130" as="geometry"/>
                </mxCell>
                <mxCell id="8" value="" style="html=1;verticalLabelPosition=bottom;labelBackgroundColor=#ffffff;verticalAlign=top;shadow=0;dashed=0;strokeWidth=1;shape=mxgraph.ios7ui.iconGrid;fillColor=#c0c0c0;gridSize=3,3;" vertex="1" parent="1">
                    <mxGeometry x="480" y="360" width="140" height="130" as="geometry"/>
                </mxCell>
                <mxCell id="10" value="" style="html=1;verticalLabelPosition=bottom;labelBackgroundColor=#ffffff;verticalAlign=top;shadow=0;dashed=0;strokeWidth=1;shape=mxgraph.ios7ui.iconGrid;fillColor=#c0c0c0;gridSize=3,3;" vertex="1" parent="1">
                    <mxGeometry x="330" y="360" width="140" height="130" as="geometry"/>
                </mxCell>
                <mxCell id="11" value="" style="html=1;verticalLabelPosition=bottom;labelBackgroundColor=#ffffff;verticalAlign=top;shadow=0;dashed=0;strokeWidth=1;shape=mxgraph.ios7ui.iconGrid;fillColor=#c0c0c0;gridSize=3,3;" vertex="1" parent="1">
                    <mxGeometry x="480" y="80" width="140" height="130" as="geometry"/>
                </mxCell>
                <mxCell id="12" value="" style="html=1;verticalLabelPosition=bottom;labelBackgroundColor=#ffffff;verticalAlign=top;shadow=0;dashed=0;strokeWidth=1;shape=mxgraph.ios7ui.iconGrid;fillColor=#c0c0c0;gridSize=3,3;" vertex="1" parent="1">
                    <mxGeometry x="480" y="220" width="140" height="130" as="geometry"/>
                </mxCell>
                <mxCell id="13" value="" style="html=1;verticalLabelPosition=bottom;labelBackgroundColor=#ffffff;verticalAlign=top;shadow=0;dashed=0;strokeWidth=1;shape=mxgraph.ios7ui.iconGrid;fillColor=#c0c0c0;gridSize=3,3;" vertex="1" parent="1">
                    <mxGeometry x="330" y="220" width="140" height="130" as="geometry"/>
                </mxCell>
                <mxCell id="14" value="Mine Sweeper" style="strokeWidth=1;shadow=0;dashed=0;align=center;html=1;shape=mxgraph.mockup.text.textBox;fontColor=#ffffff;align=left;fontSize=23;spacingLeft=4;spacingTop=-3;strokeColor=#6F0000;mainText=;fillColor=#a20025;" vertex="1" parent="1">
                    <mxGeometry x="325" y="20" width="175" height="40" as="geometry"/>
                </mxCell>
                <mxCell id="15" value="Reset Game" style="rounded=1;whiteSpace=wrap;html=1;strokeWidth=2;fillWeight=4;hachureGap=8;hachureAngle=45;fillColor=#647687;sketch=1;fontSize=23;fontColor=#ffffff;strokeColor=#314354;" vertex="1" parent="1">
                    <mxGeometry x="210" y="600" width="160" height="60" as="geometry"/>
                </mxCell>
                <mxCell id="16" value="Return to Hub" style="rounded=1;whiteSpace=wrap;html=1;strokeWidth=2;fillWeight=4;hachureGap=8;hachureAngle=45;fillColor=#647687;sketch=1;fontSize=23;fontColor=#ffffff;strokeColor=#314354;" vertex="1" parent="1">
                    <mxGeometry x="425" y="600" width="175" height="60" as="geometry"/>
                </mxCell>
                <mxCell id="17" value="info" style="rounded=1;whiteSpace=wrap;html=1;strokeWidth=2;fillWeight=4;hachureGap=8;hachureAngle=45;fillColor=#647687;sketch=1;fontSize=23;fontColor=#ffffff;strokeColor=#314354;" vertex="1" parent="1">
                    <mxGeometry x="170" y="520" width="120" height="40" as="geometry"/>
                </mxCell>
            </root>
        </mxGraphModel>
    </diagram>
</mxfile>